<?xml version="1.0" standalone="no"?>
<!DOCTYPE svg PUBLIC "-//W3C//DTD SVG 20010904//EN"
 "http://www.w3.org/TR/2001/REC-SVG-20010904/DTD/svg10.dtd">
<svg version="1.0" xmlns="http://www.w3.org/2000/svg"
 width="566.000000pt" height="566.000000pt" viewBox="0 0 566.000000 566.000000"
 preserveAspectRatio="xMidYMid meet">
<metadata>
Created by potrace 1.14, written by Peter Selinger 2001-2017
</metadata>
<g transform="translate(0.000000,566.000000) scale(0.100000,-0.100000)"
fill="#000000" stroke="none">
<path d="M2848 4414 c-3 -2 -52 -6 -109 -9 -176 -7 -209 -9 -209 -16 0 -3 -17
-6 -38 -7 -22 -1 -56 -9 -76 -17 -20 -9 -41 -13 -46 -10 -5 3 -11 1 -14 -4 -4
-5 -25 -13 -49 -17 -51 -10 -46 -8 -82 -24 -39 -17 -35 -16 -72 -25 -18 -4
-31 -12 -30 -18 1 -7 -8 -13 -20 -15 -13 -2 -23 -9 -23 -15 0 -7 -4 -6 -10 3
-6 10 -10 11 -10 3 0 -7 -9 -13 -19 -13 -11 0 -26 -6 -33 -13 -14 -14 -45 -28
-54 -24 -3 1 -12 -10 -20 -25 -13 -25 -25 -33 -46 -29 -5 0 -7 -2 -7 -7 3 -19
-2 -23 -15 -13 -12 10 -18 7 -32 -16 -24 -39 -64 -73 -84 -73 -9 0 -22 -11
-28 -25 -7 -14 -25 -34 -42 -43 -16 -9 -30 -20 -30 -24 0 -3 -20 -28 -45 -55
-74 -81 -85 -93 -85 -100 0 -5 -33 -45 -85 -105 -14 -16 -27 -39 -31 -52 -3
-14 -12 -27 -20 -30 -8 -3 -14 -16 -14 -30 0 -13 -7 -26 -15 -30 -8 -3 -15
-14 -15 -25 0 -11 -4 -22 -9 -26 -5 -3 -12 -19 -16 -35 -4 -17 -11 -27 -17
-24 -6 4 -9 1 -6 -7 3 -8 -2 -20 -9 -28 -8 -7 -12 -20 -9 -27 3 -8 2 -14 -3
-14 -10 0 -25 -48 -22 -69 1 -7 -2 -10 -8 -6 -7 3 -8 0 -5 -9 3 -9 2 -16 -4
-16 -5 0 -8 -12 -6 -27 1 -15 -2 -33 -7 -40 -6 -7 -8 -16 -5 -22 3 -5 1 -11
-5 -13 -11 -4 -16 -30 -23 -115 -2 -29 -7 -56 -10 -61 -3 -5 -3 -21 0 -35 3
-17 0 -27 -8 -27 -8 0 -9 -3 -1 -11 12 -12 5 -61 -9 -53 -6 4 -5 -3 1 -15 9
-16 9 -21 -1 -21 -9 0 -9 -3 0 -12 15 -15 16 -32 2 -23 -5 3 -10 2 -10 -4 0
-5 5 -13 10 -16 15 -9 12 -27 -3 -19 -9 5 -9 4 0 -6 9 -9 9 -19 2 -33 -7 -12
-7 -17 -1 -13 5 3 10 -4 10 -17 0 -12 2 -31 4 -42 2 -13 -2 -19 -12 -17 -13 2
-13 1 0 -10 15 -13 19 -27 23 -80 1 -16 6 -28 11 -28 5 0 2 -7 -5 -16 -11 -13
-10 -17 4 -25 9 -6 17 -15 17 -20 0 -6 -4 -7 -10 -4 -15 10 -12 -5 6 -22 9 -9
14 -29 12 -47 -1 -19 2 -30 9 -29 6 1 10 -8 8 -23 -1 -13 2 -27 6 -30 5 -3 9
-14 9 -25 0 -10 5 -19 11 -19 6 0 8 -9 4 -20 -4 -12 -2 -20 5 -20 6 0 8 -4 5
-10 -3 -5 -1 -10 5 -10 6 0 9 -4 6 -9 -4 -5 -2 -11 4 -13 5 -1 11 -15 12 -30
1 -16 8 -28 16 -28 7 0 10 -4 7 -10 -3 -6 -1 -10 5 -10 6 0 8 -5 5 -10 -4 -6
4 -20 17 -31 13 -11 16 -17 9 -13 -9 4 -6 -6 8 -24 12 -18 19 -32 15 -32 -4 0
0 -8 9 -17 8 -10 17 -24 19 -32 2 -7 13 -24 26 -37 13 -13 20 -29 17 -34 -3
-6 -1 -10 4 -10 6 0 11 -7 11 -16 0 -8 5 -12 10 -9 9 6 14 -8 11 -28 0 -4 4
-7 10 -7 17 0 41 -29 33 -41 -4 -7 -3 -9 3 -6 12 8 36 -17 26 -26 -3 -4 1 -7
10 -7 9 0 17 -4 17 -10 0 -5 8 -19 18 -29 9 -11 23 -27 30 -36 7 -8 17 -13 23
-10 5 4 9 3 9 -2 0 -11 54 -73 63 -73 4 0 17 -9 29 -20 12 -11 29 -20 37 -20
14 0 14 -1 1 -10 -12 -8 -10 -10 8 -10 13 0 20 -4 17 -10 -3 -6 1 -7 9 -4 11
4 16 0 16 -11 0 -9 5 -15 12 -13 7 3 22 -6 33 -18 16 -18 25 -20 33 -12 9 9
10 6 7 -11 -3 -17 0 -21 10 -17 9 3 15 -1 15 -9 0 -8 5 -15 11 -15 5 0 7 5 4
10 -3 6 -1 10 4 10 6 0 11 -4 11 -10 0 -5 14 -16 30 -25 17 -9 30 -13 30 -10
0 4 7 -1 16 -9 8 -9 22 -16 30 -16 8 0 14 -5 14 -11 0 -5 5 -7 10 -4 6 3 10 1
10 -4 0 -6 11 -11 24 -11 13 0 26 -5 28 -11 2 -6 15 -12 30 -12 14 -1 24 -5
21 -9 -2 -5 1 -8 7 -8 6 0 29 -9 51 -19 21 -11 37 -16 34 -11 -3 4 2 11 11 14
8 3 13 2 10 -3 -3 -5 2 -15 11 -22 14 -12 16 -12 8 1 -7 12 -6 13 7 3 8 -7 18
-10 21 -6 4 3 14 0 24 -8 15 -12 16 -12 8 1 -6 12 -5 13 6 3 7 -7 22 -13 34
-13 12 0 26 -5 32 -11 8 -8 13 -8 17 0 5 7 13 8 25 2 9 -6 32 -9 49 -9 17 1
38 -4 46 -11 11 -9 16 -9 22 0 5 8 3 9 -6 4 -9 -5 -11 -4 -6 3 4 7 15 8 29 3
12 -4 34 -6 50 -5 19 2 25 -1 20 -9 -4 -7 0 -6 10 2 13 10 17 10 17 1 0 -10 4
-10 16 1 13 10 17 10 25 -2 6 -10 9 -10 9 -1 0 6 7 12 15 12 8 0 15 -6 15 -12
0 -10 2 -10 9 0 11 17 21 17 32 0 5 -7 9 -8 9 -2 0 12 29 12 49 -1 10 -5 12
-4 7 3 -4 7 -1 12 9 12 9 0 13 -5 9 -11 -4 -7 3 -6 17 2 28 15 60 19 53 7 -3
-4 0 -8 5 -8 6 0 11 4 11 9 0 5 11 8 25 5 14 -2 25 -1 25 3 0 5 12 9 28 10 34
2 54 6 70 16 6 5 17 5 22 2 6 -3 10 0 10 7 0 9 3 9 10 -2 9 -13 10 -13 10 0 0
10 12 16 36 17 20 1 41 7 48 12 7 6 16 8 19 4 4 -3 7 -1 7 5 0 7 5 12 11 12 5
0 7 -6 3 -12 -9 -14 26 10 38 27 5 6 8 4 8 -5 0 -13 1 -13 10 0 5 8 13 15 17
15 21 2 53 18 53 27 0 6 11 8 25 6 13 -3 22 -1 19 3 -4 8 44 33 55 29 2 -1 7
2 10 7 10 14 70 53 81 53 5 0 10 5 10 12 0 6 3 9 6 5 7 -7 111 69 157 115 16
15 35 28 43 28 8 0 14 6 14 14 0 18 60 67 73 59 6 -3 7 -1 3 5 -3 6 1 18 10
26 8 9 13 16 10 16 -3 0 14 20 38 45 25 25 43 45 40 45 -7 0 47 71 69 92 10 9
17 18 16 20 -5 7 13 48 22 48 5 0 9 6 9 13 0 7 9 23 19 34 11 12 17 23 14 26
-3 3 4 19 16 35 12 17 21 37 21 46 0 9 5 16 10 16 6 0 9 3 8 8 -1 4 7 25 19
47 11 22 19 48 18 57 -2 10 1 20 6 24 5 3 7 10 4 15 -4 5 -1 9 4 9 6 0 11 7
11 15 0 8 4 15 9 15 5 0 8 8 6 18 -1 9 2 26 8 37 6 11 12 34 13 50 2 17 6 44
9 60 4 17 8 42 9 57 1 15 4 30 8 33 3 3 4 22 1 42 -4 26 -2 33 7 28 9 -6 9 -2
0 15 -7 13 -8 20 -2 16 7 -4 9 14 5 55 -4 48 -3 60 7 54 9 -6 11 -4 5 5 -4 7
-9 26 -11 42 -3 21 0 27 9 22 9 -6 9 -4 1 7 -6 8 -10 37 -10 66 1 28 -2 49 -6
47 -4 -2 -6 15 -5 40 1 24 -1 42 -5 39 -5 -2 -8 1 -8 6 0 6 6 11 13 11 8 0 7
4 -3 10 -13 8 -13 10 -1 10 11 0 8 6 -7 20 -22 21 -30 36 -13 25 13 -7 1 66
-13 84 -9 12 -8 13 4 6 13 -8 13 -6 2 8 -8 9 -10 22 -6 28 4 7 3 9 -4 5 -6 -3
-13 -2 -17 4 -3 5 -1 10 6 10 8 0 8 4 -1 15 -7 8 -9 15 -4 15 5 0 2 6 -8 13
-9 7 -17 26 -19 42 -2 17 -7 35 -12 42 -5 7 -6 17 -2 23 3 5 -1 10 -9 10 -9 0
-16 7 -16 15 0 8 -4 23 -9 33 -5 9 -15 32 -21 50 -7 17 -16 32 -20 32 -8 0
-25 49 -21 63 1 5 -3 6 -8 3 -11 -7 -23 22 -14 36 3 6 1 8 -4 5 -12 -8 -31 13
-61 66 -23 40 -30 50 -77 101 -70 78 -85 97 -85 107 0 6 -9 9 -20 6 -15 -4
-20 0 -20 15 0 10 -4 17 -9 14 -5 -3 -11 1 -15 9 -3 8 -14 15 -25 15 -15 0
-19 5 -14 17 5 13 2 15 -15 11 -12 -3 -21 -3 -20 1 2 18 -3 32 -11 27 -5 -3
-11 3 -14 14 -3 13 -11 18 -21 14 -9 -3 -28 7 -49 28 -18 19 -40 32 -47 30 -7
-3 -10 0 -6 7 5 7 -1 11 -16 11 -16 0 -19 3 -10 9 11 7 11 9 -1 14 -8 3 -20 0
-26 -6 -9 -9 -11 -8 -5 6 4 13 2 16 -9 11 -8 -3 -18 0 -23 7 -5 8 -3 10 6 4 9
-5 11 -4 6 3 -5 8 -13 9 -26 2 -15 -8 -17 -6 -13 13 4 17 2 19 -6 7 -8 -12
-14 -10 -34 12 -14 15 -27 24 -30 22 -6 -6 -49 16 -59 31 -5 6 -8 4 -8 -4 0
-11 -4 -10 -13 4 -9 11 -19 15 -27 10 -9 -5 -11 -4 -6 3 4 7 1 12 -8 12 -9 0
-16 4 -16 8 0 4 -8 8 -17 9 -10 0 -34 6 -53 13 -40 15 -62 22 -72 25 -5 2 -9
3 -10 5 -2 1 -12 3 -23 5 -36 6 -80 16 -100 22 -11 4 -27 8 -35 9 -67 11 -92
14 -143 18 -31 3 -61 7 -66 10 -4 3 -10 3 -13 0z m-1193 -2792 c-3 -3 -11 0
-18 7 -9 10 -8 11 6 5 10 -3 15 -9 12 -12z"/>
<path d="M3747 4099 c7 -7 15 -10 18 -7 3 3 -2 9 -12 12 -14 6 -15 5 -6 -5z"/>
</g>
</svg>
